<svg width="300" height="600" viewBox="0 0 300 600" fill="none" xmlns="http://www.w3.org/2000/svg">
  <rect width="300" height="600" rx="30" fill="#1E3A8A"/>
  <rect x="10" y="10" width="280" height="580" rx="25" fill="#1E40AF"/>
  <rect x="20" y="20" width="260" height="560" rx="20" fill="#2563EB"/>
  
  <!-- Status Bar -->
  <rect x="30" y="30" width="240" height="30" rx="5" fill="#1D4ED8"/>
  <circle cx="50" cy="45" r="5" fill="white"/>
  <rect x="65" y="42" width="30" height="6" rx="3" fill="white"/>
  <rect x="200" y="42" width="20" height="6" rx="3" fill="white"/>
  <rect x="230" y="42" width="20" height="6" rx="3" fill="white"/>
  
  <!-- App Header -->
  <rect x="30" y="70" width="240" height="50" rx="5" fill="#1D4ED8"/>
  <circle cx="50" cy="95" r="15" fill="white"/>
  <rect x="75" y="85" width="100" height="8" rx="4" fill="white"/>
  <rect x="75" y="97" width="60" height="6" rx="3" fill="#BFDBFE"/>
  <circle cx="250" cy="95" r="10" fill="#BFDBFE"/>
  
  <!-- Main Content -->
  <rect x="30" y="130" width="240" height="120" rx="10" fill="white"/>
  <rect x="45" y="145" width="150" height="10" rx="5" fill="#1D4ED8"/>
  <rect x="45" y="165" width="210" height="6" rx="3" fill="#94A3B8"/>
  <rect x="45" y="180" width="210" height="6" rx="3" fill="#94A3B8"/>
  <rect x="45" y="195" width="210" height="6" rx="3" fill="#94A3B8"/>
  <rect x="45" y="210" width="100" height="6" rx="3" fill="#94A3B8"/>
  <rect x="45" y="225" width="80" height="15" rx="7.5" fill="#2563EB"/>
  
  <!-- Task List -->
  <rect x="30" y="260" width="240" height="60" rx="10" fill="white"/>
  <circle cx="50" cy="290" r="10" fill="#BFDBFE"/>
  <rect x="70" y="280" width="120" height="8" rx="4" fill="#1E40AF"/>
  <rect x="70" y="295" width="80" height="6" rx="3" fill="#94A3B8"/>
  <rect x="240" y="290" r="10" fill="#BFDBFE"/>
  
  <rect x="30" y="330" width="240" height="60" rx="10" fill="white"/>
  <circle cx="50" cy="360" r="10" fill="#BFDBFE"/>
  <rect x="70" y="350" width="120" height="8" rx="4" fill="#1E40AF"/>
  <rect x="70" y="365" width="80" height="6" rx="3" fill="#94A3B8"/>
  <rect x="240" y="360" r="10" fill="#BFDBFE"/>
  
  <rect x="30" y="400" width="240" height="60" rx="10" fill="white"/>
  <circle cx="50" cy="430" r="10" fill="#BFDBFE"/>
  <rect x="70" y="420" width="120" height="8" rx="4" fill="#1E40AF"/>
  <rect x="70" y="435" width="80" height="6" rx="3" fill="#94A3B8"/>
  <rect x="240" y="430" r="10" fill="#BFDBFE"/>
  
  <!-- Bottom Navigation -->
  <rect x="30" y="520" width="240" height="60" rx="10" fill="#1D4ED8"/>
  <circle cx="60" cy="550" r="15" fill="white"/>
  <circle cx="150" cy="550" r="20" fill="#3B82F6"/>
  <circle cx="240" cy="550" r="15" fill="#BFDBFE"/>
</svg> 